<?xml version="1.0" encoding="UTF-8"?>
<svg id="Layer_1" data-name="Layer 1" xmlns="http://www.w3.org/2000/svg" viewBox="0 0 352.96132 436.07713">
  <defs>
    <style>
      .cls-1 {
        fill: #002931;
      }

      .cls-1, .cls-2, .cls-3, .cls-4 {
        stroke: #000;
        stroke-linejoin: round;
        stroke-width: 2.2536px;
      }

      .cls-2 {
        fill: #c75d28;
      }

      .cls-3 {
        fill: #a7a9ac;
      }

      .cls-4 {
        fill: #6d6e71;
      }
    </style>
  </defs>
  <polygon class="cls-4" points="78.79644 52.94849 41.05088 50.12076 22.78544 38.95623 39.31228 39.47989 78.79644 52.94849"/>
  <polygon class="cls-2" points="109.62979 97.04091 63.42176 98.71673 16.06169 116.83541 23.8747 95.97262 41.05088 50.12076 88.43192 81.39391 109.62979 97.04091"/>
  <polygon class="cls-2" points="47.96321 266.3098 20.60705 221.23296 11.97709 160.92782 44.50698 198.08694 44.67459 231.74803 45.80565 243.51997 47.96321 266.3098"/>
  <polygon class="cls-2" points="94.10847 24.31462 49.21995 32.50466 39.06093 31.43637 44.42324 18.13537 82.2946 17.82112 94.10847 24.31462"/>
  <polygon class="cls-3" points="78.79644 52.94849 39.31228 39.47989 22.78544 38.95623 15.62176 36.02366 30.68232 30.53568 39.06093 31.43637 49.21995 32.50466 78.79644 52.94849"/>
  <polygon class="cls-3" points="135.98056 20.18809 82.2946 17.82112 44.42324 18.13537 71.44431 1.1268 117.10772 4.20588 135.98056 20.18809"/>
  <path class="cls-2" d="M108.26822,32.0857c-.79598-.04181-1.59183-.02084-2.38781.08387-7.6036.98443-9.25846,10.82932-9.25846,10.82932l-13.57331,12.52598,5.38327,25.86904-47.38104-31.27315,37.74556,2.82773-29.57649-20.44383,44.88852-8.19004,14.15975,7.77108Z"/>
  <path class="cls-2" d="M135.24736,62.56301l-34.05908,21.82625-12.75636-2.99534-5.38327-25.86904,13.57331-12.52598s3.83325,8.211,10.82945,9.23749c4.18931.62837,8.83937-1.13119,11.03873-4.56646l16.75722,14.89308Z"/>
  <polygon class="cls-2" points="153.19855 78.52425 116.85637 88.05489 101.18828 84.38925 135.24736 62.56301 153.19855 78.52425"/>
  <polygon class="cls-4" points="275.48439 327.47369 262.76984 338.03083 248.7566 334.53266 239.81252 300.89254 223.6627 270.18499 209.08387 232.3346 275.48439 327.47369"/>
  <polygon class="cls-4" points="275.48439 327.47369 209.08387 232.3346 221.23283 175.77897 270.18499 275.7149 275.48439 327.47369"/>
  <polygon class="cls-4" points="270.18499 275.7149 221.23283 175.77897 249.86683 194.4213 255.2501 215.9544 257.51224 224.98234 270.18499 275.7149"/>
  <polygon class="cls-4" points="249.86683 194.4213 221.23283 175.77897 203.80543 159.90146 208.83252 118.09227 237.61303 171.6316 240.62934 177.24525 249.86683 194.4213"/>
  <polygon class="cls-4" points="208.83252 118.09227 203.80543 159.90146 142.66251 120.04029 192.45232 105.14721 208.83252 118.09227"/>
  <polygon class="cls-2" points="166.49967 107.28379 127.99994 110.59338 109.62979 97.04091 88.43192 81.39391 101.18828 84.38925 116.85637 88.05489 153.19855 78.52425 166.49967 107.28379"/>
  <path class="cls-3" d="M192.45232,105.14721l-25.95265,2.13659-13.30112-28.75954-17.95119-15.96124-16.75722-14.89308c.43992-.69114.77501-1.42435,1.00552-2.24117.67018-2.4089.25135-5.02722-.90081-7.24755-.67018-1.27771-1.59183-2.36697-2.68109-3.28862,1.1101.87972,2.05272,1.98995,2.72302,3.28862.96359,1.8433,1.40338,3.93796,1.15203,5.96971h-.04181l44.44847,25.34538,10.0125,21.23968,18.24434,14.41122Z"/>
  <polygon class="cls-4" points="325.96548 79.99053 322.59312 91.05023 315.53415 100.28772 249.86683 194.4213 240.62934 177.24525 309.69011 72.345 320.74981 70.01996 325.96548 79.99053"/>
  <polygon class="cls-4" points="346.76549 84.57783 344.29369 102.1938 325.58846 127.30867 255.2501 215.9544 249.86683 194.4213 315.53415 100.28772 322.59312 91.05023 333.73669 82.14796 346.76549 84.57783"/>
  <polygon class="cls-4" points="351.83452 100.4552 351.79258 108.14267 257.51224 224.98234 255.2501 215.9544 325.58846 127.30867 344.29369 102.1938 351.83452 100.4552"/>
  <polygon class="cls-3" points="11.97709 160.92782 20.60705 221.23296 10.11281 207.57578 1.1268 170.5004 2.86527 129.73854 23.8747 95.97262 16.06169 116.83541 11.97709 160.92782"/>
  <polygon class="cls-3" points="191.74021 309.79482 180.17769 312.03611 168.04969 314.38211 146.83085 318.50865 106.99051 312.16179 94.19221 310.13004 47.96321 266.3098 45.80565 243.51997 99.51258 290.31457 141.61518 304.70483 191.74021 309.79482"/>
  <polygon class="cls-4" points="64.65753 384.55299 65.89343 401.16357 63.02377 413.20782 59.33716 404.59883 54.31007 399.44594 47.96321 402.69275 45.82662 412.68416 43.12456 402.02245 43.62726 396.53447 39.29131 397.33045 38.24399 406.75638 34.95537 391.42351 41.17655 386.94092 49.4713 388.26056 57.15876 381.51571 94.19221 310.13004 106.99051 312.16179 64.65753 384.55299"/>
  <polygon class="cls-4" points="166.93947 408.11783 169.95577 421.94262 163.86039 434.95033 165.70369 422.38241 165.36848 419.61745 163.21105 418.04647 161.84948 416.20316 159.25213 421.79598 157.22025 427.24202 157.89055 432.91858 151.75323 414.40179 143.24895 431.20095 138.82926 419.78506 145.19696 409.41651 153.0101 404.49412 156.17292 396.80678 164.48876 358.9982 168.04969 314.38211 180.17769 312.03611 163.81845 396.86956 163.71375 403.23725 166.93947 408.11783"/>
  <path class="cls-1" d="M119.49566,45.42876c-.23051.81682-.5656,1.55002-1.00552,2.24117-2.19936,3.43526-6.84943,5.19483-11.03873,4.56646-6.9962-1.02649-10.82945-9.23749-10.82945-9.23749,0,0,1.65486-9.84489,9.25846-10.82932.79598-.10471,1.59183-.12567,2.38781-.08387h.04193c1.04733.04193,2.07369.23051,3.07921.50282.25135.06277.5027.14664.75404.25135.33509.12567.6703.25135,1.00539.39799.98455.4398,1.90621.98443,2.74399,1.65473,0,0,.02097-.02097.02097,0,1.08926.92165,2.01091,2.01091,2.68109,3.28862,1.15216,2.22033,1.57099,4.83864.90081,7.24755Z"/>
  <polygon class="cls-4" points="209.08387 232.3346 152.96817 171.6734 152.90527 171.38012 194.924 195.28018 209.08387 232.3346"/>
  <polygon class="cls-2" points="110.78183 166.10168 44.50698 198.08694 11.97709 160.92782 16.06169 116.83541 63.42176 98.71673 110.78183 166.10168"/>
  <polygon class="cls-2" points="134.07436 178.64863 122.57473 261.97386 44.67459 231.74803 44.50698 198.08694 110.78183 166.10168 134.07436 178.64863"/>
  <polygon class="cls-2" points="134.07436 178.64863 110.78183 166.10168 63.42176 98.71673 109.62979 97.04091 127.99994 110.59338 134.07436 178.64863"/>
  <polygon class="cls-3" points="191.74021 309.79482 141.61518 304.70483 99.51258 290.31457 45.80565 243.51997 44.67459 231.74803 122.57473 261.97386 191.74021 309.79482"/>
  <polygon class="cls-3" points="191.74021 309.79482 122.57473 261.97386 148.35991 229.31829 191.74021 309.79482"/>
  <polygon class="cls-3" points="223.6627 270.18499 191.74021 309.79482 148.35991 229.31829 209.08387 232.3346 223.6627 270.18499"/>
  <polygon class="cls-3" points="209.08387 232.3346 148.35991 229.31829 122.57473 261.97386 134.07436 178.64863 152.82153 171.33831 152.90527 171.38012 152.96817 171.6734 209.08387 232.3346"/>
  <polygon class="cls-3" points="142.66251 120.04029 152.90527 171.38012 152.82153 171.33831 134.07436 178.64863 127.99994 110.59338 166.49967 107.28379 192.45232 105.14721 142.66251 120.04029"/>
  <polygon class="cls-4" points="221.23283 175.77897 209.08387 232.3346 194.924 195.28018 203.80543 159.90146 221.23283 175.77897"/>
  <polygon class="cls-4" points="203.80543 159.90146 194.924 195.28018 152.90527 171.38012 142.66251 120.04029 203.80543 159.90146"/>
  <path class="cls-4" d="M119.78881,44.15092c.25135-2.03175-.18845-4.1264-1.15203-5.96971-.6703-1.29867-1.61292-2.4089-2.72302-3.28862,0-.02097-.02097,0-.02097,0-.81695-.69127-1.75944-1.2359-2.74399-1.65473-.33509-.14664-.6703-.27232-1.00539-.39799-.25135-.10471-.5027-.18858-.75404-.25135-1.00552-.27232-2.03188-.46089-3.07921-.50282h-.04193l-14.15975-7.77108-11.81387-6.4935,53.68596,2.36697,14.01323,11.87677,14.20168,37.43144-44.44847-25.34538h.04181Z"/>
  <polygon class="cls-4" points="309.69011 72.345 240.62934 177.24525 237.61303 171.6316 295.65591 74.60726 302.9872 65.9773 309.69011 72.345"/>
</svg>